<?xml version="1.0" encoding="UTF-8"?>
<svg version="1.1" xmlns="http://www.w3.org/2000/svg" width="64" height="64">
<path d="M0 0 C2.62109375 0.296875 2.62109375 0.296875 4.2109375 1.90625 C4.87802734 2.96585938 4.87802734 2.96585938 5.55859375 4.046875 C8.86360333 8.85958225 11.99369844 11.42107656 17.62109375 13.296875 C23.94890495 13.83313019 28.43235767 13.09862201 33.62109375 9.296875 C36.48503653 6.44764426 39.09186024 3.44496352 41.62109375 0.296875 C42.94109375 0.626875 44.26109375 0.956875 45.62109375 1.296875 C46.5553302 4.30719244 46.66559286 5.16337768 45.62109375 8.296875 C46.13671875 8.68875 46.65234375 9.080625 47.18359375 9.484375 C47.65796875 10.0825 48.13234375 10.680625 48.62109375 11.296875 C48.30859375 13.984375 48.30859375 13.984375 47.62109375 16.296875 C44.2464666 15.74963817 42.53874375 15.241975 39.62109375 13.296875 C38.40418842 15.06217095 38.40418842 15.06217095 37.62109375 17.296875 C38.27038965 18.63875318 38.93841237 19.97166997 39.62109375 21.296875 C39.24609375 24.046875 39.24609375 24.046875 38.62109375 26.296875 C36.30859375 26.109375 36.30859375 26.109375 33.62109375 25.296875 C33.14671875 24.45125 32.67234375 23.605625 32.18359375 22.734375 C31.66796875 21.93 31.15234375 21.125625 30.62109375 20.296875 C27.49474166 19.87940892 27.49474166 19.87940892 24.62109375 20.296875 C24.62109375 22.936875 24.62109375 25.576875 24.62109375 28.296875 C22.9549747 28.339596 21.2872649 28.33751332 19.62109375 28.296875 C18.62109375 27.296875 18.62109375 27.296875 18.55859375 23.734375 C18.57921875 22.6 18.59984375 21.465625 18.62109375 20.296875 C15.79035939 19.79518085 15.79035939 19.79518085 12.62109375 20.296875 C11.23171298 22.25835374 9.89505265 24.25854076 8.62109375 26.296875 C7.30109375 26.296875 5.98109375 26.296875 4.62109375 26.296875 C3.35844774 22.00387857 3.99158963 19.41856189 5.62109375 15.296875 C4.63109375 14.636875 3.64109375 13.976875 2.62109375 13.296875 C1.63109375 14.781875 1.63109375 14.781875 0.62109375 16.296875 C-2.00390625 16.484375 -2.00390625 16.484375 -4.37890625 16.296875 C-5.06640625 13.984375 -5.06640625 13.984375 -5.37890625 11.296875 C-4.88390625 10.843125 -4.38890625 10.389375 -3.87890625 9.921875 C-3.38390625 9.385625 -2.88890625 8.849375 -2.37890625 8.296875 C-2.70217178 4.70008434 -2.70217178 4.70008434 -3.37890625 1.296875 C-2.37890625 0.296875 -2.37890625 0.296875 0 0 Z " fill="#000000" transform="translate(10.37890625,20.703125)"/>
</svg>
