<?xml version="1.0" encoding="UTF-8"?>
<svg version="1.1" xmlns="http://www.w3.org/2000/svg" width="128" height="128">
<path d="M0 0 C0.63421875 0.44988281 1.2684375 0.89976563 1.921875 1.36328125 C10.68928999 8.18014749 18.60134582 19.44939528 22 30 C21.37924252 41.21797449 12.56201934 52.24951912 5 60 C-7.82928744 71.40775975 -20.94765522 75.95450798 -37.94287109 75.17480469 C-47.86188959 74.33193533 -56.10948952 69.7651633 -64 64 C-64.63421875 63.55011719 -65.2684375 63.10023437 -65.921875 62.63671875 C-74.68928999 55.81985251 -82.60134582 44.55060472 -86 34 C-85.37924252 22.78202551 -76.56201934 11.75048088 -69 4 C-48.38552261 -14.33032477 -22.37330282 -16.34694545 0 0 Z M-65.7980957 18.64819336 C-71.16197228 25.13407487 -71.16197228 25.13407487 -72.82421875 32.94140625 C-71.4349395 38.09688326 -68.20729421 41.812514 -65 46 C-64.53464844 46.64453125 -64.06929687 47.2890625 -63.58984375 47.953125 C-59.39643977 53.3813214 -53.93310101 56.68670982 -48 60 C-47.36449219 60.36480469 -46.72898437 60.72960937 -46.07421875 61.10546875 C-38.58146339 64.64417583 -28.53571235 64.14185765 -20.6484375 62.15625 C-7.37373555 57.0796198 0.6816852 47.55269024 8.3125 36.015625 C9.33137582 33.02846636 8.8136943 31.01953857 8 28 C5.99572318 24.42763883 3.48860542 21.24915635 1 18 C0.53464844 17.35546875 0.06929688 16.7109375 -0.41015625 16.046875 C-4.60356023 10.6186786 -10.06689899 7.31329018 -16 4 C-16.63550781 3.63519531 -17.27101562 3.27039063 -17.92578125 2.89453125 C-35.26700839 -5.29544964 -55.06234912 4.83188218 -65.7980957 18.64819336 Z " fill="#000000" transform="translate(96,32)"/>
<path d="M0 0 C4.51595159 3.79750475 9.28342706 8.90913003 10 15 C10.4891914 22.33787096 9.51075768 28.01423411 4.6875 33.75 C-1.50923987 38.93796827 -5.73187929 41.35086236 -13.84765625 41.21484375 C-20.32579351 40.56820573 -24.82139544 37.991111 -29 33 C-33.41867079 26.98569809 -34.74662443 22.47981929 -34 15 C-32.33419903 7.87771713 -28.8082004 4.06316764 -22.9375 -0.25 C-15.64069078 -4.59703528 -7.36855671 -3.96158963 0 0 Z M-20 12 C-22.32826375 15.21522137 -22.39711181 18.10830425 -22 22 C-20.72311154 24.80915461 -19.68900183 26.50106764 -17.1875 28.3125 C-13.13938379 29.58476509 -10.12012891 29.50914951 -6.25 27.75 C-3.83119625 25.8687082 -2.91208095 24.90207573 -2 22 C-1.50723463 17.36800553 -2.12974158 14.69033225 -5 11 C-9.98424831 7.39071674 -15.34986731 8.38323013 -20 12 Z " fill="#000000" transform="translate(76,45)"/>
</svg>
